<?xml version="1.0" encoding="UTF-8" standalone="no"?>
<svg
   width="95"
   height="104"
   viewBox="0 0 95 104"
   fill="none"
   version="1.1"
   id="svg41"
   sodipodi:docname="exp.svg"
   inkscape:version="1.1 (c68e22c387, 2021-05-23)"
   xmlns:inkscape="http://www.inkscape.org/namespaces/inkscape"
   xmlns:sodipodi="http://sodipodi.sourceforge.net/DTD/sodipodi-0.dtd"
   xmlns="http://www.w3.org/2000/svg"
   xmlns:svg="http://www.w3.org/2000/svg">
  <sodipodi:namedview
     id="namedview43"
     pagecolor="#ffffff"
     bordercolor="#666666"
     borderopacity="1.0"
     inkscape:pageshadow="2"
     inkscape:pageopacity="0.0"
     inkscape:pagecheckerboard="0"
     showgrid="false"
     inkscape:zoom="7.7115385"
     inkscape:cx="42.274314"
     inkscape:cy="49.860349"
     inkscape:window-width="1920"
     inkscape:window-height="991"
     inkscape:window-x="-9"
     inkscape:window-y="-9"
     inkscape:window-maximized="1"
     inkscape:current-layer="svg41" />
  <g
     filter="url(#filter0_d)"
     id="g6">
    <path
       fill-rule="evenodd"
       clip-rule="evenodd"
       d="M47.5 16.9999C62.1355 16.9999 73.9999 28.8644 73.9999 43.4999C73.9999 58.1353 62.1355 69.9999 47.5 69.9999C32.8644 69.9999 21 58.1353 21 43.4999C21 28.8644 32.8644 16.9999 47.5 16.9999Z"
       fill="#FF4361"
       id="path2" />
    <path
       fill-rule="evenodd"
       clip-rule="evenodd"
       d="M47.5 16.9999C62.1355 16.9999 73.9999 28.8644 73.9999 43.4999C73.9999 58.1353 62.1355 69.9999 47.5 69.9999C32.8644 69.9999 21 58.1353 21 43.4999C21 28.8644 32.8644 16.9999 47.5 16.9999Z"
       fill="url(#paint0_linear)"
       id="path4" />
  </g>
  <path
     fill-rule="evenodd"
     clip-rule="evenodd"
     d="M42 0.999936H51.9999C68.5685 0.999936 81.9999 14.4311 81.9999 30.9999V40.9999C81.9999 57.5682 68.5685 70.9998 51.9999 70.9998H42C25.4315 70.9998 11.9999 57.5682 11.9999 40.9999V30.9999C11.9999 14.4311 25.4315 0.999936 42 0.999936Z"
     fill="#FF4361"
     id="path8" />
  <path
     fill-rule="evenodd"
     clip-rule="evenodd"
     d="M42 0.999936H51.9999C68.5685 0.999936 81.9999 14.4311 81.9999 30.9999V40.9999C81.9999 57.5682 68.5685 70.9998 51.9999 70.9998H42C25.4315 70.9998 11.9999 57.5682 11.9999 40.9999V30.9999C11.9999 14.4311 25.4315 0.999936 42 0.999936Z"
     fill="url(#paint1_linear)"
     id="path10" />
  <defs
     id="defs39">
    <filter
       id="filter0_d"
       x="-3.05176e-05"
       y="8.99988"
       width="95"
       height="95"
       filterUnits="userSpaceOnUse"
       color-interpolation-filters="sRGB">
      <feFlood
         flood-opacity="0"
         result="BackgroundImageFix"
         id="feFlood14" />
      <feColorMatrix
         in="SourceAlpha"
         type="matrix"
         values="0 0 0 0 0 0 0 0 0 0 0 0 0 0 0 0 0 0 127 0"
         id="feColorMatrix16" />
      <feOffset
         dy="13"
         id="feOffset18" />
      <feGaussianBlur
         stdDeviation="10.5"
         id="feGaussianBlur20" />
      <feColorMatrix
         type="matrix"
         values="0 0 0 0 0.898039 0 0 0 0 0.117647 0 0 0 0 0.435294 0 0 0 0.3 0"
         id="feColorMatrix22" />
      <feBlend
         mode="normal"
         in2="BackgroundImageFix"
         result="effect1_dropShadow"
         id="feBlend24" />
      <feBlend
         mode="normal"
         in="SourceGraphic"
         in2="effect1_dropShadow"
         result="shape"
         id="feBlend26" />
    </filter>
    <linearGradient
       id="paint0_linear"
       x1="51.6351"
       y1="102.635"
       x2="106.635"
       y2="39.3649"
       gradientUnits="userSpaceOnUse">
      <stop
         stop-color="#F80759"
         id="stop29" />
      <stop
         offset="1"
         stop-color="#BC4E9C"
         id="stop31" />
    </linearGradient>
    <linearGradient
       id="paint1_linear"
       x1="52.4132"
       y1="113.413"
       x2="124.413"
       y2="30.5868"
       gradientUnits="userSpaceOnUse">
      <stop
         stop-color="#F80759"
         id="stop34" />
      <stop
         offset="1"
         stop-color="#BC4E9C"
         id="stop36" />
    </linearGradient>
  </defs>
  <path
     id="path2-0"
     d="m 47.179269,13.706083 c -3.722503,0 -6.739779,3.09889 -6.739779,6.921118 0,3.822228 3.017479,6.920712 6.739779,6.920712 3.722301,0 6.740174,-3.098484 6.740174,-6.920712 0,-3.822228 -3.017873,-6.921118 -6.740174,-6.921118 z m -1.553843,15.529976 0.813108,2.004092 -0.632374,5.955824 -4.951415,-7.941235 h -1.987289 c -4.643814,0 -8.42057,3.896651 -8.42057,8.646626 v 21.07808 h 5.890681 V 39.645555 h -0.01819 c 0,-0.519597 0.325064,-0.872297 0.849098,-0.872297 0.524033,0 0.849491,0.334195 0.849491,0.872297 V 58.979038 H 56.539109 V 39.645555 c 0,-0.519597 0.32506,-0.872297 0.849094,-0.872297 0.506013,0 0.849098,0.334195 0.849098,0.872297 v 19.333483 h 5.891076 V 37.901366 c 0,-4.768479 -3.794775,-8.646626 -8.420569,-8.646626 h -1.69859 l -4.951018,7.904279 -0.595989,-5.918868 0.813108,-2.004092 z"
     style="fill:#ffffff;stroke-width:0.205186" />
</svg>
