<?xml version="1.0" encoding="UTF-8" standalone="no"?>
<svg
   width="95"
   height="105"
   viewBox="0 0 95 105"
   fill="none"
   version="1.1"
   id="svg41"
   sodipodi:docname="know.svg"
   inkscape:version="1.1 (c68e22c387, 2021-05-23)"
   xmlns:inkscape="http://www.inkscape.org/namespaces/inkscape"
   xmlns:sodipodi="http://sodipodi.sourceforge.net/DTD/sodipodi-0.dtd"
   xmlns="http://www.w3.org/2000/svg"
   xmlns:svg="http://www.w3.org/2000/svg">
  <sodipodi:namedview
     id="namedview43"
     pagecolor="#ffffff"
     bordercolor="#666666"
     borderopacity="1.0"
     inkscape:pageshadow="2"
     inkscape:pageopacity="0.0"
     inkscape:pagecheckerboard="0"
     showgrid="false"
     inkscape:zoom="4.8064609"
     inkscape:cx="82.181049"
     inkscape:cy="35.265032"
     inkscape:window-width="1920"
     inkscape:window-height="991"
     inkscape:window-x="-9"
     inkscape:window-y="-9"
     inkscape:window-maximized="1"
     inkscape:current-layer="svg41" />
  <g
     filter="url(#filter0_d)"
     id="g6">
    <path
       fill-rule="evenodd"
       clip-rule="evenodd"
       d="M47.4999 17.9999C62.1354 17.9999 73.9999 29.8644 73.9999 44.4999C73.9999 59.1353 62.1354 70.9999 47.4999 70.9999C32.8644 70.9999 20.9999 59.1353 20.9999 44.4999C20.9999 29.8644 32.8644 17.9999 47.4999 17.9999Z"
       fill="#FF4361"
       id="path2" />
    <path
       fill-rule="evenodd"
       clip-rule="evenodd"
       d="M47.4999 17.9999C62.1354 17.9999 73.9999 29.8644 73.9999 44.4999C73.9999 59.1353 62.1354 70.9999 47.4999 70.9999C32.8644 70.9999 20.9999 59.1353 20.9999 44.4999C20.9999 29.8644 32.8644 17.9999 47.4999 17.9999Z"
       fill="url(#paint0_linear)"
       id="path4" />
  </g>
  <path
     fill-rule="evenodd"
     clip-rule="evenodd"
     d="M42.9999 0.999936H53C69.5685 0.999936 83 14.4311 83 30.9999V40.9999C83 57.5682 69.5685 70.9998 53 70.9998H42.9999C26.4314 70.9998 12.9999 57.5682 12.9999 40.9999V30.9999C12.9999 14.4311 26.4314 0.999936 42.9999 0.999936Z"
     fill="#FF4361"
     id="path8" />
  <path
     fill-rule="evenodd"
     clip-rule="evenodd"
     d="M42.9999 0.999936H53C69.5685 0.999936 83 14.4311 83 30.9999V40.9999C83 57.5682 69.5685 70.9998 53 70.9998H42.9999C26.4314 70.9998 12.9999 57.5682 12.9999 40.9999V30.9999C12.9999 14.4311 26.4314 0.999936 42.9999 0.999936Z"
     fill="url(#paint1_linear)"
     id="path10" />
  <defs
     id="defs39">
    <filter
       id="filter0_d"
       x="-9.91821e-05"
       y="9.99988"
       width="95"
       height="95"
       filterUnits="userSpaceOnUse"
       color-interpolation-filters="sRGB">
      <feFlood
         flood-opacity="0"
         result="BackgroundImageFix"
         id="feFlood14" />
      <feColorMatrix
         in="SourceAlpha"
         type="matrix"
         values="0 0 0 0 0 0 0 0 0 0 0 0 0 0 0 0 0 0 127 0"
         id="feColorMatrix16" />
      <feOffset
         dy="13"
         id="feOffset18" />
      <feGaussianBlur
         stdDeviation="10.5"
         id="feGaussianBlur20" />
      <feColorMatrix
         type="matrix"
         values="0 0 0 0 0.94902 0 0 0 0 0.501961 0 0 0 0 0.27451 0 0 0 0.3 0"
         id="feColorMatrix22" />
      <feBlend
         mode="normal"
         in2="BackgroundImageFix"
         result="effect1_dropShadow"
         id="feBlend24" />
      <feBlend
         mode="normal"
         in="SourceGraphic"
         in2="effect1_dropShadow"
         result="shape"
         id="feBlend26" />
    </filter>
    <linearGradient
       id="paint0_linear"
       x1="51.6351"
       y1="103.635"
       x2="106.635"
       y2="40.3649"
       gradientUnits="userSpaceOnUse">
      <stop
         stop-color="#F80759"
         id="stop29" />
      <stop
         offset="1"
         stop-color="#BC4E9C"
         id="stop31" />
    </linearGradient>
    <linearGradient
       id="paint1_linear"
       x1="53.4132"
       y1="113.413"
       x2="125.413"
       y2="30.5868"
       gradientUnits="userSpaceOnUse">
      <stop
         stop-color="#F46B45"
         id="stop34" />
      <stop
         offset="1"
         stop-color="#EEA849"
         id="stop36" />
    </linearGradient>
  </defs>
  <g
     id="g4"
     style="fill:#ffffff"
     transform="matrix(0.07766121,0,0,0.07601834,28.928067,17.9999)">
    <path
       d="m 264.892,0 c -31.1,0 -61,6.7 -88.9,19.9 -35.4,16.5 -65.4,42.5 -86.8,75.3 -21.9,33.7 -33.5,72.8 -33.5,113.2 v 29 l -38.1,72.8 c -7,13.4 -7.3,27.2 -0.9,37.8 6.4,10.6 18.8,16.7 33.9,16.7 h 5.1 v 58.5 c 0,30 24.4,54.4 54.4,54.4 0.7,0 1.5,-0.1 2.2,-0.2 l 170.5,-28.4 c 27,-3.7 47.2,-27 47.1,-54.2 v -99.7 c 40.1,-6.5 70.9,-41.4 70.9,-83.4 0,-46.6 -37.9,-84.5 -84.5,-84.5 -46.6,0 -84.5,37.9 -84.5,84.5 0,42.1 30.9,77 71.2,83.5 V 395 c 0.1,13.8 -10.2,25.6 -23.8,27.4 -0.2,0 -0.3,0 -0.5,0.1 l -169.6,28 c -14.6,-0.5 -26.4,-12.6 -26.4,-27.4 v -72 c 0,-7.5 -6,-13.5 -13.5,-13.5 h -18.7 c -5.3,0 -9.4,-1.4 -10.8,-3.7 -1.4,-2.3 -0.7,-6.6 1.7,-11.3 l 39.7,-75.7 c 1,-1.9 1.5,-4.1 1.5,-6.3 v -32.3 c 0,-70.1 41.1,-134.5 104.7,-164 h 0.1 c 24.3,-11.5 50.3,-17.3 77.4,-17.3 99.9,0 181.1,81.3 181.1,181.1 0,50.6 -21.4,99.2 -58.7,133.5 -2.8,2.6 -4.4,6.2 -4.4,9.9 v 62.2 57.8 c 0,7.5 6,13.5 13.5,13.5 7.5,0 13.5,-6 13.5,-13.5 v -57.8 -56.3 c 19,-18.4 34.1,-39.9 44.9,-64.1 12.1,-26.9 18.2,-55.5 18.2,-85.2 C 472.992,93.4 379.592,0 264.892,0 Z m -6.199,211.6 c 0,-31.7 25.8,-57.5 57.5,-57.5 31.7,0 57.5,25.8 57.5,57.5 0,31.7 -25.8,57.5 -57.5,57.5 -31.7,0 -57.5,-25.8 -57.5,-57.5 z"
       id="path2-2"
       style="fill:#ffffff" />
  </g>
</svg>
