<?xml version="1.0" encoding="UTF-8" standalone="no"?>
<svg
   width="95"
   height="104"
   viewBox="0 0 95 104"
   fill="none"
   version="1.1"
   id="svg34"
   sodipodi:docname="time.svg"
   inkscape:version="1.1 (c68e22c387, 2021-05-23)"
   xmlns:inkscape="http://www.inkscape.org/namespaces/inkscape"
   xmlns:sodipodi="http://sodipodi.sourceforge.net/DTD/sodipodi-0.dtd"
   xmlns="http://www.w3.org/2000/svg"
   xmlns:svg="http://www.w3.org/2000/svg">
  <sodipodi:namedview
     id="namedview36"
     pagecolor="#ffffff"
     bordercolor="#666666"
     borderopacity="1.0"
     inkscape:pageshadow="2"
     inkscape:pageopacity="0.0"
     inkscape:pagecheckerboard="0"
     showgrid="false"
     inkscape:zoom="5.4528811"
     inkscape:cx="61.802191"
     inkscape:cy="65.378282"
     inkscape:window-width="1920"
     inkscape:window-height="991"
     inkscape:window-x="-9"
     inkscape:window-y="-9"
     inkscape:window-maximized="1"
     inkscape:current-layer="svg34" />
  <g
     filter="url(#filter0_d)"
     id="g4">
    <path
       fill-rule="evenodd"
       clip-rule="evenodd"
       d="M47.4999 16.9999C62.1354 16.9999 74 28.8644 74 43.4999C74 58.1353 62.1354 69.9999 47.4999 69.9999C32.8644 69.9999 21 58.1353 21 43.4999C21 28.8644 32.8644 16.9999 47.4999 16.9999Z"
       fill="#FF4361"
       id="path2" />
  </g>
  <path
     fill-rule="evenodd"
     clip-rule="evenodd"
     d="M41.9999 0.999936H52C68.5685 0.999936 82 14.4311 82 30.9999V40.9999C82 57.5682 68.5685 70.9998 52 70.9998H41.9999C25.4314 70.9998 11.9999 57.5682 11.9999 40.9999V30.9999C11.9999 14.4311 25.4314 0.999936 41.9999 0.999936Z"
     fill="#FF4361"
     id="path6" />
  <path
     fill-rule="evenodd"
     clip-rule="evenodd"
     d="M41.9999 0.999936H52C68.5685 0.999936 82 14.4311 82 30.9999V40.9999C82 57.5682 68.5685 70.9998 52 70.9998H41.9999C25.4314 70.9998 11.9999 57.5682 11.9999 40.9999V30.9999C11.9999 14.4311 25.4314 0.999936 41.9999 0.999936Z"
     fill="url(#paint0_linear)"
     id="path8" />
  <defs
     id="defs32">
    <filter
       id="filter0_d"
       x="1.14441e-05"
       y="8.99988"
       width="95"
       height="95"
       filterUnits="userSpaceOnUse"
       color-interpolation-filters="sRGB">
      <feFlood
         flood-opacity="0"
         result="BackgroundImageFix"
         id="feFlood12" />
      <feColorMatrix
         in="SourceAlpha"
         type="matrix"
         values="0 0 0 0 0 0 0 0 0 0 0 0 0 0 0 0 0 0 127 0"
         id="feColorMatrix14" />
      <feOffset
         dy="13"
         id="feOffset16" />
      <feGaussianBlur
         stdDeviation="10.5"
         id="feGaussianBlur18" />
      <feColorMatrix
         type="matrix"
         values="0 0 0 0 0.992157 0 0 0 0 0.345098 0 0 0 0 0.447059 0 0 0 0.3 0"
         id="feColorMatrix20" />
      <feBlend
         mode="normal"
         in2="BackgroundImageFix"
         result="effect1_dropShadow"
         id="feBlend22" />
      <feBlend
         mode="normal"
         in="SourceGraphic"
         in2="effect1_dropShadow"
         result="shape"
         id="feBlend24" />
    </filter>
    <linearGradient
       id="paint0_linear"
       x1="52.4132"
       y1="113.413"
       x2="124.413"
       y2="30.5868"
       gradientUnits="userSpaceOnUse">
      <stop
         stop-color="#FF5858"
         id="stop27" />
      <stop
         offset="1"
         stop-color="#F857A6"
         id="stop29" />
    </linearGradient>
  </defs>
  <g
     id="g6"
     style="fill:#ffffff"
     transform="matrix(0.32123842,0,0,0.31380931,25.057451,12.965335)">
    <path
       style="fill:#ffffff"
       d="M 71.224,0 C 31.951,0 0,31.951 0,71.224 c 0,39.273 31.951,71.224 71.224,71.224 39.273,0 71.224,-31.951 71.224,-71.224 C 142.448,31.951 110.496,0 71.224,0 Z m 0,127.447 C 40.222,127.447 15,102.226 15,71.224 15,40.222 40.222,15 71.224,15 c 31.002,0 56.224,25.222 56.224,56.224 0,31.002 -25.222,56.223 -56.224,56.223 z"
       id="path2-8" />
    <path
       style="fill:#ffffff"
       d="M 100.923,72.016 H 71.724 V 46.724 c 0,-4.143 -3.357,-7.5 -7.5,-7.5 -4.143,0 -7.5,3.357 -7.5,7.5 v 32.792 c 0,4.143 3.357,7.5 7.5,7.5 h 36.699 c 4.143,0 7.5,-3.357 7.5,-7.5 0,-4.143 -3.358,-7.5 -7.5,-7.5 z"
       id="path4" />
  </g>
</svg>
