<?xml version="1.0" encoding="UTF-8" standalone="no"?>
<svg
   width="95"
   height="104"
   viewBox="0 0 95 104"
   fill="none"
   version="1.1"
   id="svg41"
   sodipodi:docname="cloft.svg"
   inkscape:version="1.1 (c68e22c387, 2021-05-23)"
   xmlns:inkscape="http://www.inkscape.org/namespaces/inkscape"
   xmlns:sodipodi="http://sodipodi.sourceforge.net/DTD/sodipodi-0.dtd"
   xmlns="http://www.w3.org/2000/svg"
   xmlns:svg="http://www.w3.org/2000/svg">
  <sodipodi:namedview
     id="namedview43"
     pagecolor="#ffffff"
     bordercolor="#666666"
     borderopacity="1.0"
     inkscape:pageshadow="2"
     inkscape:pageopacity="0.0"
     inkscape:pagecheckerboard="0"
     showgrid="false"
     inkscape:zoom="6.7903248"
     inkscape:cx="45.505924"
     inkscape:cy="55.29927"
     inkscape:window-width="1920"
     inkscape:window-height="991"
     inkscape:window-x="-9"
     inkscape:window-y="-9"
     inkscape:window-maximized="1"
     inkscape:current-layer="svg41" />
  <g
     filter="url(#filter0_d)"
     id="g6">
    <path
       fill-rule="evenodd"
       clip-rule="evenodd"
       d="M47.5 16.9999C62.1355 16.9999 73.9999 28.8644 73.9999 43.4999C73.9999 58.1353 62.1355 69.9999 47.5 69.9999C32.8644 69.9999 21 58.1353 21 43.4999C21 28.8644 32.8644 16.9999 47.5 16.9999Z"
       fill="#FF4361"
       id="path2" />
    <path
       fill-rule="evenodd"
       clip-rule="evenodd"
       d="M47.5 16.9999C62.1355 16.9999 73.9999 28.8644 73.9999 43.4999C73.9999 58.1353 62.1355 69.9999 47.5 69.9999C32.8644 69.9999 21 58.1353 21 43.4999C21 28.8644 32.8644 16.9999 47.5 16.9999Z"
       fill="url(#paint0_linear)"
       id="path4" />
  </g>
  <path
     fill-rule="evenodd"
     clip-rule="evenodd"
     d="M42 0.999936H51.9999C68.5685 0.999936 81.9999 14.4311 81.9999 30.9999V40.9999C81.9999 57.5682 68.5685 70.9998 51.9999 70.9998H42C25.4315 70.9998 11.9999 57.5682 11.9999 40.9999V30.9999C11.9999 14.4311 25.4315 0.999936 42 0.999936Z"
     fill="#FF4361"
     id="path8" />
  <path
     fill-rule="evenodd"
     clip-rule="evenodd"
     d="M42 0.999936H51.9999C68.5685 0.999936 81.9999 14.4311 81.9999 30.9999V40.9999C81.9999 57.5682 68.5685 70.9998 51.9999 70.9998H42C25.4315 70.9998 11.9999 57.5682 11.9999 40.9999V30.9999C11.9999 14.4311 25.4315 0.999936 42 0.999936Z"
     fill="url(#paint1_linear)"
     id="path10" />
  <defs
     id="defs39">
    <filter
       id="filter0_d"
       x="-3.05176e-05"
       y="8.99988"
       width="95"
       height="95"
       filterUnits="userSpaceOnUse"
       color-interpolation-filters="sRGB">
      <feFlood
         flood-opacity="0"
         result="BackgroundImageFix"
         id="feFlood14" />
      <feColorMatrix
         in="SourceAlpha"
         type="matrix"
         values="0 0 0 0 0 0 0 0 0 0 0 0 0 0 0 0 0 0 127 0"
         id="feColorMatrix16" />
      <feOffset
         dy="13"
         id="feOffset18" />
      <feGaussianBlur
         stdDeviation="10.5"
         id="feGaussianBlur20" />
      <feColorMatrix
         type="matrix"
         values="0 0 0 0 0.898039 0 0 0 0 0.117647 0 0 0 0 0.435294 0 0 0 0.3 0"
         id="feColorMatrix22" />
      <feBlend
         mode="normal"
         in2="BackgroundImageFix"
         result="effect1_dropShadow"
         id="feBlend24" />
      <feBlend
         mode="normal"
         in="SourceGraphic"
         in2="effect1_dropShadow"
         result="shape"
         id="feBlend26" />
    </filter>
    <linearGradient
       id="paint0_linear"
       x1="51.6351"
       y1="102.635"
       x2="106.635"
       y2="39.3649"
       gradientUnits="userSpaceOnUse">
      <stop
         stop-color="#F80759"
         id="stop29" />
      <stop
         offset="1"
         stop-color="#BC4E9C"
         id="stop31" />
    </linearGradient>
    <linearGradient
       id="paint1_linear"
       x1="52.4132"
       y1="113.413"
       x2="124.413"
       y2="30.5868"
       gradientUnits="userSpaceOnUse">
      <stop
         stop-color="#F80759"
         id="stop34" />
      <stop
         offset="1"
         stop-color="#BC4E9C"
         id="stop36" />
    </linearGradient>
  </defs>
  <g
     id="g8183"
     transform="matrix(1.0191847,0,0,0.95472025,-0.16028452,2.6712756)">
    <path
       style="opacity:1;fill:#ffffff;stroke-width:0.129676"
       d="M 45.269775,10.258319 C 42.559106,10.3502 39.621502,9.9532065 37.164784,11.375 c -2.669077,1.255284 -4.111757,4.145212 -4.402346,6.971986 -0.170468,0.500724 0.172231,1.428392 -0.600304,1.363484 -3.371189,0.580282 -6.606796,2.667863 -7.923901,5.916965 -1.227039,3.022761 -1.387022,6.481026 -0.545044,9.625896 0.85945,3.254768 3.41883,5.965289 6.626636,6.989071 1.626749,0.483272 3.367959,0.863575 5.054998,0.651409 0.847268,-0.439582 0.321514,-1.636466 0.467368,-2.415709 -0.134719,-0.81799 0.411314,-2.180962 -0.646353,-2.494487 -2.183747,-0.07103 -4.759094,-0.484771 -6.004344,-2.514748 -1.177224,-1.867612 -1.079352,-4.19781 -0.82795,-6.283958 0.273626,-1.944035 1.612555,-3.725115 3.547427,-4.255981 2.011145,-0.669909 4.118838,-0.321369 6.205325,-0.444172 4.105614,-0.05636 8.230765,0.009 12.323961,-0.114022 0.968372,-0.31681 0.438956,-1.579369 0.574005,-2.342562 -0.14965,-0.85071 0.405382,-2.129381 -0.53922,-2.609726 -4.266652,-0.04379 -8.538033,-0.0062 -12.806499,-0.01874 0.14705,-1.16291 0.349213,-2.525291 1.297013,-3.311799 1.828085,-1.153413 4.050578,-0.731388 6.075239,-0.869123 2.408345,0.03082 4.813726,-0.0986 7.205133,0.226316 1.796558,0.341566 3.044179,2.026933 3.112473,3.811 0.186855,1.553026 -0.03393,3.149077 0.176741,4.681416 0.423138,0.796443 1.556546,0.36266 2.301282,0.530943 2.215672,-0.03187 4.609479,0.718319 5.903289,2.628468 1.526256,2.286584 1.552886,5.465393 0.234785,7.850706 -1.186898,2.12251 -3.70115,3.014659 -6.020367,3.032174 -1.12008,0.265563 -0.551957,1.672499 -0.689091,2.498043 0.133942,0.816845 -0.416091,2.214997 0.668023,2.492781 3.652447,0.04744 7.421222,-1.483435 9.637152,-4.464005 1.624064,-2.084429 2.4719,-4.742667 2.295164,-7.385695 0.244732,-4.300529 -2.305833,-8.587979 -6.206206,-10.416616 -1.001234,-0.492182 -2.077331,-0.818848 -3.173765,-1.016638 -0.187273,-2.456217 -0.936617,-4.99204 -2.797907,-6.710723 -1.390116,-1.44454 -3.332447,-2.361893 -5.315481,-2.599328 -2.360762,-0.188813 -4.736326,-0.09406 -7.102245,-0.119305 z"
       id="path1719" />
    <path
       style="opacity:1;fill:#ffffff;fill-rule:evenodd;stroke-width:0.0292293"
       d="m 36.875389,30.551242 c -0.349231,0.11555 -0.525141,0.49016 -0.483425,0.841027 0,7.969856 0,15.939712 0,23.909568 0.0016,0.397624 0.36378,0.72644 0.758478,0.700019 6.284299,0 12.568599,0 18.852899,0 0.397623,-0.0016 0.72644,-0.363779 0.700019,-0.758477 0,-8.008829 0,-16.017657 0,-24.026486 -0.0016,-0.397623 -0.36378,-0.726439 -0.758478,-0.700018 -6.2843,0 -12.568599,0 -18.852899,0 -0.0722,0.01146 -0.144396,0.02291 -0.216594,0.03437 z m 13.472082,5.077792 c 0.414576,0 0.829153,0 1.243729,0 0,0.760951 0,1.521902 0,2.282854 -0.829153,0 -1.658305,0 -2.487459,0 0,-0.760952 0,-1.521903 0,-2.282854 0.414577,0 0.829154,0 1.24373,0 z m -6.355889,1.141198 c 0,0.380552 0,0.761104 0,1.141656 -0.827347,-7.58e-4 -1.663083,0.0022 -2.481921,-0.0038 -0.0017,-0.755724 0.0033,-1.51144 0.0062,-2.267155 0.825252,-0.0032 1.650504,-0.0064 2.475756,-0.0096 0,0.37962 0,0.759239 0,1.138858 z M 51.5912,46.9422 c 0,1.306089 0,2.612179 0,3.918268 -3.362035,0 -6.724071,0 -10.086106,0 0.0041,-2.607573 0.0083,-5.215147 0.0125,-7.82272 3.357868,-0.0043 6.715736,-0.0086 10.073604,-0.01296 0,1.305804 0,2.611608 0,3.917411 z"
       id="path6249" />
  </g>
</svg>
