<?xml version="1.0" encoding="UTF-8" standalone="no"?>
<svg
   width="57"
   height="57"
   viewBox="0 0 57 57"
   fill="none"
   version="1.1"
   id="svg13"
   sodipodi:docname="savem.svg"
   inkscape:version="1.1 (c68e22c387, 2021-05-23)"
   xmlns:inkscape="http://www.inkscape.org/namespaces/inkscape"
   xmlns:sodipodi="http://sodipodi.sourceforge.net/DTD/sodipodi-0.dtd"
   xmlns="http://www.w3.org/2000/svg"
   xmlns:svg="http://www.w3.org/2000/svg">
  <sodipodi:namedview
     id="namedview15"
     pagecolor="#ffffff"
     bordercolor="#666666"
     borderopacity="1.0"
     inkscape:pageshadow="2"
     inkscape:pageopacity="0.0"
     inkscape:pagecheckerboard="0"
     showgrid="false"
     inkscape:zoom="9.9491165"
     inkscape:cx="26.333997"
     inkscape:cy="35.530793"
     inkscape:window-width="1920"
     inkscape:window-height="991"
     inkscape:window-x="-9"
     inkscape:window-y="-9"
     inkscape:window-maximized="1"
     inkscape:current-layer="svg13" />
  <path
     fill-rule="evenodd"
     clip-rule="evenodd"
     d="M24.5416 0.791616H32.4583C45.575 0.791616 56.2083 11.4246 56.2083 24.5416V32.4583C56.2083 45.5748 45.575 56.2082 32.4583 56.2082H24.5416C11.4249 56.2082 0.791673 45.5748 0.791673 32.4583V24.5416C0.791673 11.4246 11.4249 0.791616 24.5416 0.791616Z"
     fill="url(#paint0_linear)"
     id="path2" />
  <defs
     id="defs11">
    <linearGradient
       id="paint0_linear"
       x1="32.7855"
       y1="89.7855"
       x2="89.7855"
       y2="24.2145"
       gradientUnits="userSpaceOnUse">
      <stop
         stop-color="#FF416C"
         id="stop6" />
      <stop
         offset="1"
         stop-color="#FF4B2B"
         id="stop8" />
    </linearGradient>
  </defs>
  <g
     id="g8"
     style="fill:#ffffff"
     transform="matrix(0.63582768,0,0,0.5747499,6.5711986,9.8809331)">
    <path
       d="M 21.5,2 H 64 V 0 H 21.5 C 20.122,0 19,1.122 19,2.5 19,3.065 19.195,3.581 19.513,4 19.195,4.419 19,4.935 19,5.5 19,6.065 19.195,6.581 19.513,7 19.195,7.419 19,7.935 19,8.5 19,9.878 20.122,11 21.5,11 h 6.575 C 27.368,12.282 27,13.695 27,15.17 c 0,2.828 1.31,5.439 3.593,7.165 0.147,0.111 0.304,0.197 0.466,0.268 C 30.393,23.57 30,24.739 30,26 c 0,1.093 0.299,2.116 0.812,3 H 24 c 0,-4.962 -4.038,-9 -9,-9 -0.552,0 -1,0.448 -1,1 v 8.045 C 8.401,29.552 4,34.271 4,40 H 3 c -1.654,0 -3,1.346 -3,3 v 4 c 0,1.654 1.346,3 3,3 H 4.045 C 4.522,55.27 8.73,59.478 14,59.955 V 61 c 0,1.654 1.346,3 3,3 h 4 c 1.654,0 3,-1.346 3,-3 v -1 h 16 v 1 c 0,1.654 1.346,3 3,3 h 4 c 1.654,0 3,-1.346 3,-3 V 59.955 C 55.599,59.448 60,54.729 60,49 v -9 c 0,-2.16 -0.635,-4.17 -1.714,-5.872 l 3.421,-3.421 -1.414,-1.414 -3.24,3.239 C 55.043,30.366 52.182,29 49,29 H 41.188 C 41.701,28.116 42,27.093 42,26 42,24.739 41.607,23.569 40.94,22.602 41.103,22.53 41.261,22.445 41.407,22.335 43.69,20.61 45,17.998 45,15.17 45,13.695 44.632,12.282 43.925,11 H 64 V 9 H 42 c -0.393,0 -0.75,0.231 -0.912,0.588 -0.162,0.358 -0.099,0.778 0.162,1.073 1.161,1.318 1.75,2.835 1.75,4.509 0,2.195 -1.02,4.225 -2.798,5.569 -0.06,0.045 -0.127,0.067 -0.2,0.067 -0.05,0 -0.177,-0.013 -0.268,-0.133 -0.111,-0.146 -0.082,-0.355 0.065,-0.466 1.611,-1.217 2.535,-3.053 2.535,-5.038 0,-3.492 -2.841,-6.333 -6.333,-6.333 -3.492,0 -6.334,2.841 -6.334,6.333 0,1.984 0.924,3.82 2.535,5.037 0.146,0.111 0.176,0.32 0.065,0.467 C 32.157,20.82 31.945,20.85 31.8,20.738 30.02,19.396 29,17.366 29,15.17 29,13.495 29.589,11.978 30.75,10.661 31.01,10.366 31.073,9.946 30.912,9.588 30.749,9.231 30.393,9 30,9 H 21.5 C 21.224,9 21,8.776 21,8.5 21,8.224 21.224,8 21.5,8 H 37 V 6 H 21.5 C 21.224,6 21,5.776 21,5.5 21,5.224 21.224,5 21.5,5 H 37 V 3 H 21.5 C 21.224,3 21,2.776 21,2.5 21,2.224 21.224,2 21.5,2 Z M 40,26 c 0,2.206 -1.794,4 -4,4 -2.206,0 -4,-1.794 -4,-4 0,-2.206 1.794,-4 4,-4 2.206,0 4,1.794 4,4 z m 18,14 v 9 c 0,4.962 -4.038,9 -9,9 -0.552,0 -1,0.448 -1,1 v 2 c 0,0.551 -0.449,1 -1,1 h -4 c -0.551,0 -1,-0.449 -1,-1 v -2 c 0,-0.552 -0.448,-1 -1,-1 H 23 c -0.552,0 -1,0.448 -1,1 v 2 c 0,0.551 -0.449,1 -1,1 h -4 c -0.551,0 -1,-0.449 -1,-1 V 59 C 16,58.448 15.552,58 15,58 10.038,58 6,53.962 6,49 6,48.448 5.552,48 5,48 H 3 C 2.449,48 2,47.551 2,47 v -4 c 0,-0.551 0.449,-1 1,-1 h 2 c 0.552,0 1,-0.448 1,-1 v -1 c 0,-4.962 4.038,-9 9,-9 0.552,0 1,-0.448 1,-1 v -7.929 c 3.388,0.487 6,3.408 6,6.929 v 1 c 0,0.552 0.448,1 1,1 h 9.69 c 0.95,0.631 2.087,1 3.31,1 1.223,0 2.36,-0.369 3.31,-1 H 49 c 4.962,0 9,4.038 9,9 z M 31.666,15.17 c 0,-2.39 1.944,-4.333 4.334,-4.333 2.39,0 4.333,1.944 4.333,4.333 0,1.352 -0.634,2.606 -1.741,3.442 -0.54,0.408 -0.845,1.007 -0.907,1.633 C 37.15,20.088 36.586,20 36,20 35.414,20 34.849,20.088 34.314,20.245 34.252,19.62 33.947,19.02 33.407,18.612 32.301,17.776 31.666,16.522 31.666,15.17 Z"
       id="path2-3"
       style="fill:#ffffff" />
    <path
       d="m 13,36 c -1.654,0 -3,1.346 -3,3 0,1.654 1.346,3 3,3 1.654,0 3,-1.346 3,-3 0,-1.654 -1.346,-3 -3,-3 z m 0,4 c -0.551,0 -1,-0.449 -1,-1 0,-0.551 0.449,-1 1,-1 0.551,0 1,0.449 1,1 0,0.551 -0.449,1 -1,1 z"
       id="path4"
       style="fill:#ffffff" />
    <path
       d="m 30,33 c -1.654,0 -3,1.346 -3,3 0,1.654 1.346,3 3,3 h 12 c 1.654,0 3,-1.346 3,-3 0,-1.654 -1.346,-3 -3,-3 z m 13,3 c 0,0.551 -0.449,1 -1,1 H 30 c -0.551,0 -1,-0.449 -1,-1 0,-0.551 0.449,-1 1,-1 h 12 c 0.551,0 1,0.449 1,1 z"
       id="path6"
       style="fill:#ffffff" />
  </g>
</svg>
